# xmcd CD database file
# Copyright (C) 1996 Ti Kan
#
# Track frame offsets:
#  150
#  37112
#  48887
#  76575
#  87075
#  122162
#  134387
#  148700
#  160262
#  188312
#  211462
#  222287
#  248700
#  267050
#  284075
#
# Disc length: 3933 seconds
#
# Revision: 1
# Processed by: cddbd v1.4b41PL1 Copyright (c) Steve Scherf et al.
# Submitted via: CDWizzard Release:4.14
#
DISCID=d30f5b0f
DTITLE=Jimi Hendrix - The Collection
DYEAR=1900
DGENRE=
TTITLE0=Red House
TTITLE1=Sweet Thang
TTITLE2=Blues Blues
TTITLE3=Groove Maker
TTITLE4=Peoples Peoples
TTITLE5=She's A Fox
TTITLE6=Whoa Eeh
TTITLE7=Gonna Take A Lot
TTITLE8=Lime Lime
TTITLE9=Voice In The Wind
TTITLE10=From This Day On
TTITLE11=Good Times
TTITLE12=Good Feelings
TTITLE13=Suspicious
TTITLE14=Feel That Soul
EXTD=
EXTT0=
EXTT1=
EXTT2=
EXTT3=
EXTT4=
EXTT5=
EXTT6=
EXTT7=
EXTT8=
EXTT9=
EXTT10=
EXTT11=
EXTT12=
EXTT13=
EXTT14=
PLAYORDER=
